<?xml version="1.0" encoding="utf-8"?>
<!-- Generator: Adobe Illustrator 16.0.3, SVG Export Plug-In . SVG Version: 6.00 Build 0)  -->
<!DOCTYPE svg PUBLIC "-//W3C//DTD SVG 1.1//EN" "http://www.w3.org/Graphics/SVG/1.1/DTD/svg11.dtd">
<svg version="1.1" id="Layer_1" xmlns="http://www.w3.org/2000/svg" xmlns:xlink="http://www.w3.org/1999/xlink" x="0px" y="0px"
	 width="256px" height="256px" viewBox="0 0 256 256" enable-background="new 0 0 256 256" xml:space="preserve"
class="fullScreen"
>
<g>
	<path fill="#FFE6BB" d="M243.624,11.22c-5.293-2.229-10.028-4.457-15.878-5.014c-10.585-0.835-20.612,1.671-30.919,2.786
		c-9.749,1.393-19.777,1.95-29.526,1.671c-11.699-0.279-22.284-6.964-34.262-5.85c-13.092,1.393-26.184,9.471-38.997,5.014
		c-12.535-4.457-27.02-3.064-39.276,0.836c-8.078,2.507-17.828,5.85-24.791,10.028c-3.343,2.229-5.85,6.407-8.078,9.749
		c-6.128,9.192-12.813,19.22-17.27,29.527c-6.407,14.206-2.786,28.69,1.671,43.175c3.9,12.256,4.735,24.234,4.179,37.047
		c-0.279,6.686-2.229,13.092-2.229,19.777c0,6.406,2.507,10.863,4.457,16.713c3.621,10.585,2.786,22.841,4.178,33.983
		c4.457,37.883,45.683,29.248,72.424,25.905c10.028-1.393,20.056-3.899,29.805-4.457c5.292-0.278,8.635,1.95,13.649,3.621
		c10.585,3.064,21.17,3.621,32.033,4.735c6.128,0.836,12.256,1.95,18.385,0.836c7.521-1.393,15.599-3.343,22.841-5.293
		c9.749-2.785,23.398-10.863,29.526-18.662c10.028-13.093,4.735-25.627,1.95-39.833c-1.114-6.964-0.558-14.764-0.558-21.728
		c0-5.571-0.835-12.256,0.558-17.549c1.393-5.292,4.457-9.47,5.292-15.042c0.836-5.014,1.114-9.75,2.507-14.763
		c1.394-5.292,3.9-9.75,5.571-14.763c1.393-4.735,0.836-10.307,0.836-15.042c-0.558-10.306-1.95-22.005-4.457-32.033
		c-1.393-5.292-3.064-10.585-3.343-16.156c0-6.407,2.229-11.978,0-18.663"/>
	<g>
		<path fill="#CC9933" d="M244.381,9.925c-5.442-2.307-10.725-4.479-16.635-5.219c-7.328-0.917-15.035,0.539-22.274,1.615
			c-15.33,2.279-32.283,5.021-47.586,1.419c-6.036-1.421-11.921-3.729-18.137-4.313c-7.006-0.659-13.489,0.955-20.19,2.849
			c-7.172,2.026-14.391,4.17-21.909,2.969c-3.349-0.536-6.57-1.972-9.904-2.676c-3.545-0.75-7.205-0.959-10.816-1.012
			c-13.271-0.193-26.881,4.288-38.938,9.491c-5.024,2.168-9.932,4.311-13.323,8.768c-4.317,5.674-8.107,11.847-11.897,17.881
			C4.998,54.076-1.245,66.489-0.111,81.45c0.523,6.904,2.443,13.676,4.411,20.281c2.374,7.968,4.044,15.797,4.615,24.117
			c0.525,7.664,0.241,15.357-0.96,22.939c-1.048,6.618-1.754,12.886,0.114,19.42c1.955,6.838,4.687,12.922,5.588,20.082
			c0.934,7.424,0.873,14.939,1.727,22.374c0.972,8.458,4.083,16.481,10.587,22.184c5.75,5.041,13.402,7.076,20.816,8.003
			c19.548,2.443,40.622-2.4,59.792-5.697c8.102-1.394,14.912-2.22,22.65,0.863c7.063,2.815,14.758,3.787,22.27,4.646
			c7.483,0.855,14.992,1.75,22.489,2.456c7.458,0.702,14.809-1.328,22.007-3.015c17.61-4.125,39.087-12.357,45.61-31.025
			c3.069-8.783,0.307-18.598-1.664-27.284c-2.626-11.57-1.618-23.896-1.749-35.709c-0.068-6.13,2.047-10.739,4.222-16.311
			c2.163-5.543,2.444-11.409,3.468-17.223c1.041-5.917,3.688-11.277,5.848-16.828c1.919-4.935,1.61-10.293,1.492-15.486
			c-0.261-11.399-1.851-22.96-4.528-34.039c-1.549-6.411-3.624-12.485-3.108-19.181c0.419-5.436,1.263-10.283-0.234-15.638
			c-0.52-1.86-3.414-1.069-2.893,0.798c2.041,7.301-0.616,14.542,0.32,21.939c0.922,7.282,3.527,14.332,4.859,21.557
			c1.396,7.575,2.119,15.272,2.566,22.957c0.194,3.34,0.168,6.75,0,10.09c-0.227,4.495-2.297,8.56-4.007,12.633
			c-2.914,6.941-3.708,14.083-4.854,21.447c-1.005,6.462-5.29,11.878-5.902,18.45c-0.615,6.592,0.052,13.276-0.07,19.893
			c-0.136,7.318,0.086,14.293,1.678,21.449c1.39,6.253,2.938,12.432,2.832,18.883c-0.129,7.904-4.405,14.539-10.1,19.675
			c-10.809,9.748-24.31,13.731-38.153,16.887c-8.477,1.932-15.974,2.454-24.595,1.243c-8.157-1.146-16.388-1.509-24.525-2.861
			c-6.86-1.14-12.985-4.289-19.717-5.6c-6.451-1.257-14.382,0.969-20.743,2.094c-19.022,3.365-40.641,8.063-59.908,4.174
			c-8.809-1.777-16.238-6.496-20.432-14.573c-5.87-11.304-3.75-25.767-5.57-38.022c-0.964-6.489-3.808-12.297-5.594-18.545
			c-2.227-7.787,0.535-16.118,1.32-23.938c1.465-14.595-1.063-28.968-5.209-42.884c-2.245-7.534-3.938-15.178-3.988-23.071
			c-0.057-9.11,3.792-17.177,8.058-24.991c3.466-6.349,7.496-12.387,11.497-18.405c1.839-2.765,3.596-5.577,5.731-8.128
			c2.549-3.048,6.458-4.612,9.989-6.213c16.094-7.299,34.854-12.454,52.391-8.072c3.441,0.859,6.578,2.023,10.139,2.358
			c3.902,0.367,7.943-0.422,11.737-1.247c8.665-1.886,16.859-5.498,25.887-5.081c8.124,0.375,15.892,3.958,23.854,5.367
			c8.301,1.469,17.331,0.604,25.674-0.087c9.142-0.757,18.168-2.452,27.272-3.509c10.238-1.188,18.573,0.487,27.972,4.472
			C244.626,13.261,246.157,10.678,244.381,9.925L244.381,9.925z"/>
	</g>
</g>
<text id="gameOverScore" transform="matrix(1 0 0 1 88.4707 47.9888)" font-family="'MyriadPro-Regular'" font-size="12">Score</text>
<g id="gameOverBtnNewGame">
	<rect x="41" y="157" fill="#66CC33" width="142" height="36"/>
	<text transform="matrix(1 0 0 1 90.4209 178.0723)" font-family="'MyriadPro-Regular'" font-size="12">New Game</text>
</g>
</svg>
