<?xml version="1.0" encoding="utf-8"?>
<!-- Generator: Adobe Illustrator 16.0.3, SVG Export Plug-In . SVG Version: 6.00 Build 0)  -->
<!DOCTYPE svg PUBLIC "-//W3C//DTD SVG 1.1//EN" "http://www.w3.org/Graphics/SVG/1.1/DTD/svg11.dtd">
<svg version="1.1" id="Layer_1" xmlns="http://www.w3.org/2000/svg" xmlns:xlink="http://www.w3.org/1999/xlink" x="0px" y="0px"
	 width="440px" height="220px" viewBox="0 0 440 220" enable-background="new 0 0 440 220" xml:space="preserve">
<g>
	<path fill="#FFFFFF" d="M16.422,98.951c12.418-0.653,25.49-37.255,32.026-47.712c13.726-22.222,28.758-33.987,56.209-37.255
		c27.451-3.921,24.836,15.686,35.948,33.987c4.575,7.843,5.229,7.843,15.686,7.189c11.111-0.653,21.569-3.268,31.373-6.536
		c18.301-5.882,34.641-18.955,52.941-22.876c16.993-4.575,33.333,1.961,49.673,7.189c10.458,3.922,20.915,5.229,32.68,5.229
		c13.072,0.653,26.144,0.653,39.216,0c7.843-0.654,18.954-3.268,26.797,0c9.15,4.575,20.262,22.875,26.144,31.373
		c6.536,9.804,9.15,18.301,11.765,30.065c2.615,13.725,4.575,22.875-1.307,36.601c-4.575,10.458-9.804,18.301-11.111,30.065
		c-1.307,5.229,1.308,15.033-3.268,20.261c-9.15,9.804-41.831-7.189-52.941-10.458c-15.687-4.575-34.641-11.765-50.98-11.765
		c-15.687,0.654-32.68,9.804-47.059,14.379c-18.3,5.882-35.294,12.418-52.288,18.954c-17.647,6.536-33.987,1.961-52.287-2.614
		c-17.647-5.229-35.294-10.458-53.595-15.687c-6.536-1.96-15.033-2.614-20.915-6.536c-4.575-3.268-5.882-8.497-10.458-11.765
		c-14.379-12.418-43.137-6.536-52.941-26.144c-3.268-6.536-4.575-26.797-1.307-34.641c3.921-10.458,26.797-10.458,38.562-12.418"/>
	<g>
		<path d="M16.422,100.451c6.663-0.674,11.091-7.184,14.479-12.303c5.414-8.179,9.433-17.268,13.646-26.096
			c8.975-18.803,22.172-35.508,42.386-42.655c5.712-2.02,11.727-3.158,17.724-3.914c5.692-0.717,11.569-0.982,16.776,1.81
			c7.551,4.047,9.923,14.517,13.036,21.76c2.545,5.924,6.094,16.45,13.458,17.691c4.995,0.842,10.725-0.173,15.675-0.796
			c7.196-0.905,14.246-2.692,21.168-4.814c13.365-4.097,25.27-11.168,37.775-17.237c6.559-3.183,13.221-5.411,20.277-7.15
			c8.55-2.107,17.575-0.832,25.998,1.172c14.076,3.35,27.113,9.513,41.602,11.15c15.693,1.773,32.074,1.365,47.831,0.774
			c6.337-0.237,12.571-1.378,18.898-1.736c7.347-0.417,12.506,1.419,17.658,6.533c7.871,7.811,13.888,17.798,19.918,27.049
			c7.436,11.406,10.412,25.017,12.491,38.285c1.101,7.021,0.821,13.84-1.175,20.676c-2.01,6.886-5.93,13.113-8.698,19.7
			c-2.288,5.444-3.882,11.015-4.576,16.89c-0.689,5.837,0.911,12.22-2.136,17.567c-4.238,7.442-20.186,1.447-25.924-0.421
			c-8.407-2.738-16.426-6.507-24.787-9.356c-12.733-4.339-25.945-8.45-39.18-10.898c-13.709-2.535-25.783,0.007-38.716,4.757
			c-13.938,5.119-27.893,10.066-41.879,15.056c-6.935,2.474-13.826,5.068-20.708,7.686c-7.786,2.961-15.366,6.331-23.694,7.415
			c-14.999,1.953-30.944-2.866-45.185-7.085c-12.271-3.635-24.545-7.255-36.837-10.818c-5.589-1.62-11.158-3.358-16.841-4.622
			c-5.916-1.316-12.401-2.322-16.903-6.727c-3.396-3.323-5.331-7.407-9.076-10.495c-2.432-2.006-5.316-3.51-8.238-4.66
			c-7.675-3.021-15.872-4.266-23.788-6.481c-8.26-2.312-15.699-6.194-19.851-14.016c-3.807-7.17-3.354-17.948-2.764-25.779
			c0.286-3.789,0.935-7.848,3.686-10.656c2.755-2.813,7.141-3.938,10.826-4.87c8.051-2.034,16.435-2.252,24.611-3.55
			c1.906-0.302,1.094-3.193-0.798-2.893c-9.71,1.541-19.693,1.684-29.086,4.86c-7.977,2.696-11.127,7.838-12.121,15.916
			c-1.048,8.511-0.917,19.844,2.746,27.812c3.776,8.214,11.449,12.657,19.714,15.39c9.469,3.131,19.661,3.934,28.688,8.389
			c5.459,2.694,8.561,7.084,12.161,11.772c3.354,4.366,8.382,6.166,13.521,7.542c14.399,3.853,28.763,7.698,43.079,11.911
			c14.818,4.36,29.596,9.185,44.905,11.535c6.405,0.983,12.849,1.138,19.276,0.301c7.369-0.959,14.181-4.016,21.063-6.647
			c14.413-5.51,28.91-10.733,43.578-15.526c13.971-4.565,27.147-11.708,41.901-13.584c14.16-1.801,29.47,3.929,42.786,8.072
			c9.173,2.854,18.018,5.952,26.96,9.446c8.609,3.364,17.575,6.725,26.868,7.413c7.848,0.581,13.448-2.847,14.663-10.907
			c0.688-4.57,0.08-9.228,0.675-13.816c1.014-7.825,4.024-14.803,7.424-21.854c5.663-11.745,8.564-22.168,6.726-35.242
			c-1.763-12.533-4.893-25.166-11.128-36.259c-5.205-9.257-11.772-18.34-18.537-26.507c-2.858-3.451-6.054-6.714-9.88-9.086
			c-4.67-2.894-11.37-2.417-16.571-2.002c-6.591,0.525-13.036,1.443-19.664,1.658c-8.494,0.276-16.997,0.212-25.49-0.063
			c-7.744-0.251-15.486-0.31-23.164-1.473c-7.584-1.149-14.75-3.859-22.004-6.237c-13.574-4.45-27.33-8.248-41.647-5.353
			c-13.589,2.747-25.629,9.842-37.838,16.062c-13.804,7.032-28.782,11.8-44.215,13.456c-3.857,0.414-11.025,1.975-14.354-0.8
			c-3.529-2.942-5.767-8.824-7.629-12.903c-3.397-7.439-5.457-15.908-11.204-22.001c-6.189-6.561-15.895-6.081-24.065-4.936
			C91.882,14.25,81.485,17.334,72.177,23.19C63.62,28.575,56.85,36.268,51.082,44.47C40.408,59.646,36.041,78.91,23.588,92.887
			c-1.853,2.08-4.274,4.271-7.166,4.564C14.516,97.644,14.498,100.646,16.422,100.451L16.422,100.451z"/>
	</g>
</g>
<g>
	<path fill="#FFFFFF" d="M197.52,100.794c23.529-12.418,56.862-22.876,84.313-24.183c15.033-0.654,28.104,4.575,40.523,12.418
		c7.189,3.921,15.033,11.765,22.876,13.072c15.686,1.961,37.255-11.111,51.634-15.687c13.726-3.921,23.529-12.418,27.451,2.615
		c6.536,22.222-15.032,28.104-32.026,31.373c-26.144,5.882-49.673,13.072-73.856,24.183c-29.412,13.726-60.131-1.307-90.85-1.96
		c-15.686,0-52.941,5.882-61.438-11.111c-5.883-13.726,7.843-16.34,16.993-20.915c7.189-3.921,17.647-7.843,15.687-17.647"/>
	<g>
		<path d="M198.277,102.09c24.688-12.893,52.652-21.667,80.482-23.796c15.051-1.151,28.633,3.443,41.404,11.138
			c10.21,6.152,18.844,15.169,31.537,14.217c11.628-0.873,22.764-6.446,33.316-10.99c5.313-2.288,10.659-4.17,16.122-6.039
			c4.716-1.613,9.423-4.187,14.448-4.649c6.243-0.574,7.722,7.771,8.31,12.386c0.693,5.437-1.196,10.359-5.044,14.162
			c-6.809,6.729-17.943,8.682-26.959,10.437c-14.739,2.869-29.386,7.279-43.59,12.099c-6.813,2.312-13.528,4.897-20.172,7.654
			c-7.312,3.034-14.307,6.638-22.04,8.514c-27.725,6.728-55.754-7.15-83.62-5.96c-9.44,0.403-18.846,1.126-28.301,0.678
			c-8.825-0.418-20.281-1.773-25.817-9.611c-8.082-11.442,6.813-16.378,14.615-19.985c7.327-3.387,16.898-7.761,17.598-16.861
			c0.071-0.926-0.159-2.026-0.292-2.931c-0.281-1.908-3.172-1.094-2.893,0.798c1.62,10.987-14.943,15.934-22.835,19.442
			c-7.24,3.22-12.747,8.015-10.767,16.519c4.061,17.449,31.494,16.11,44.757,15.643c9.996-0.352,19.684-1.141,29.681-0.095
			c14.775,1.545,29.218,5.314,44.032,6.625c14.38,1.273,27.228-1.253,40.314-7.129c14.11-6.336,28.738-11.453,43.583-15.762
			c12.453-3.614,25.232-5.838,37.698-9.317c7.837-2.187,15.908-5.722,20.501-12.759c4.257-6.52,3.459-18.026-1.315-24.103
			c-5.188-6.604-14.011-1.944-20.234,0.418c-11.09,4.209-22.034,8.703-33.1,12.991c-5.794,2.246-11.799,4.139-17.995,4.825
			c-7.612,0.843-13.398-2.594-19.418-6.805c-10.821-7.569-22.096-14.352-35.089-17.378c-12.436-2.896-25.65-0.849-38.021,1.437
			c-21.617,3.993-42.927,11.425-62.408,21.598C195.047,100.395,196.564,102.984,198.277,102.09L198.277,102.09z"/>
	</g>
</g>
</svg>
