<?xml version="1.0" encoding="utf-8"?>
<!-- Generator: Adobe Illustrator 16.0.3, SVG Export Plug-In . SVG Version: 6.00 Build 0)  -->
<!DOCTYPE svg PUBLIC "-//W3C//DTD SVG 1.1//EN" "http://www.w3.org/Graphics/SVG/1.1/DTD/svg11.dtd">
<svg version="1.1" id="Layer_1" xmlns="http://www.w3.org/2000/svg" xmlns:xlink="http://www.w3.org/1999/xlink" x="0px" y="0px"
	 width="940px" height="200px" viewBox="0 0 940 200" enable-background="new 0 0 940 200" xml:space="preserve">
<g>
	<path fill="#EFC36C" d="M-12.027,139.302c17.647-9.15,41.83-37.255,63.399-34.641c9.15,0.654,15.033,8.497,22.876,12.418
		c7.843,4.575,13.725,3.268,22.875,3.268c12.418,0,26.144,1.307,37.909-2.614c7.843-2.615,16.34-7.843,24.183-11.765
		c1.96-1.307,12.418-9.804,15.033-9.804c7.189,1.307,15.032,16.34,22.875,20.915c21.569,10.458,49.673,2.614,71.896-1.961
		c45.098-9.15,84.314-24.836,128.758-6.536c7.843,3.268,14.379,8.497,22.876,9.804c30.065,4.575,64.706-8.497,94.117-14.379
		c18.301-3.268,47.713-9.15,66.667-3.922c13.071,3.268,22.876,12.418,37.255,15.687c41.177,7.843,83.66-10.458,124.837-13.072
		c10.457-0.654,20.915-1.961,30.719,1.96c9.15,2.615,16.993,9.804,25.49,12.418c31.372,11.111,65.359-3.268,95.425-11.765
		c7.189-1.961,22.222-11.111,30.719-7.843c9.804,3.922,13.072,21.569,19.607,28.758c11.766,13.072,23.529,5.229,37.256,3.268
		c2.614,8.497-1.308,24.836-7.19,32.68c-5.229,7.189-18.3,9.15-22.222,16.993c-1.961,3.922,1.961,11.765-0.654,15.033
		c-3.921,5.882-27.45,1.961-33.333,1.961c-47.712,0-95.425,5.882-143.137,6.536c-61.438,1.307-122.876-3.268-184.314-3.268
		c-56.862,0-113.725,0.653-169.934-3.922c-52.288-3.921-106.536-1.96-158.824-1.96c-40.523,0-79.739,5.882-119.608,8.497
		c-40.523,1.961-81.699,0-122.876,0c-17.647,0-28.104,1.307-41.176-11.765c-15.033-15.687-8.497-38.562,7.843-50.98"/>
	<g>
		<path d="M-11.27,140.598c9.663-5.159,18.008-12.622,26.728-19.168c9.135-6.857,19.54-14.307,31.255-15.375
			c12.567-1.146,20.562,10.19,31.375,14.473c4.937,1.956,10.568,1.513,15.747,1.369c7.495-0.209,14.992,0.256,22.488,0.116
			c6.476-0.122,12.913-0.903,19.108-2.832c6.946-2.162,13.39-6.029,19.768-9.438c3.898-2.084,7.149-4.268,10.69-6.886
			c1.739-1.286,3.511-2.521,5.335-3.681c2.836-1.804,4.446-1.25,7.037,0.851c8.29,6.721,12.419,16.37,22.861,20.354
			c11.901,4.541,25.566,3.897,37.937,2.105c28.84-4.178,56.826-12.882,85.481-18.01c14.753-2.64,29.731-3.706,44.65-1.954
			c7.756,0.911,15.363,2.884,22.734,5.421c7.175,2.47,13.397,6.632,20.365,9.494c11.967,4.917,26.294,3.878,38.846,2.164
			c14.496-1.98,28.661-5.627,42.828-9.198c24.928-6.283,52.096-12.759,77.951-10.501c13.672,1.193,24.469,8.789,36.701,14.109
			c12.479,5.428,26.892,5.643,40.271,4.95c30.217-1.565,59.295-11.374,89.342-14.34c7.217-0.713,14.56-1.25,21.813-1.134
			c8.427,0.135,16.363,2.993,23.647,7.059c5.147,2.873,10.03,6.083,15.651,7.981c6.796,2.296,13.71,3.557,20.862,3.994
			c14.139,0.864,28.374-2.194,41.943-5.833c12.641-3.39,25.994-6.713,38.126-11.63c7.162-2.902,17.909-9.442,25.782-5.868
			c7.53,3.418,10.64,14.828,14.1,21.607c3.546,6.947,9.328,12.566,17.188,14.042c8.548,1.604,17.478-2.581,25.802-3.893
			c-0.615-0.349-1.229-0.698-1.845-1.047c2.797,10.396-1.206,26.431-9.213,33.791c-5.639,5.183-20.28,7.936-20.77,17.379
			c-0.202,3.916,2.813,11.079-1.307,13.423c-3.796,2.16-9.662,1.522-13.839,1.379c-10.339-0.356-20.349-1.259-30.741-1.047
			c-33.184,0.675-66.264,3.73-99.4,5.391c-33.037,1.655-66.13,1.393-99.187,0.522c-33.032-0.87-66.049-2.304-99.093-2.707
			c-33.028-0.402-66.061,0.118-99.089-0.313c-32.833-0.428-65.45-2.498-98.208-4.474c-32.326-1.949-64.744-1.805-97.112-1.532
			c-32.294,0.272-64.571-0.09-96.789,2.455c-32.229,2.545-64.263,6.561-96.621,7.124c-33.093,0.575-66.186-0.716-99.278-0.741
			c-11.663-0.009-23.267,0.835-33.489-5.762c-11.738-7.575-16.998-20.58-13.3-34.021c2.266-8.235,7.905-15.207,14.517-20.402
			c1.521-1.194-0.618-3.302-2.121-2.121c-16.957,13.324-23.395,37.975-6.662,54.251c7.469,7.265,16.474,10.426,26.721,10.979
			c14.669,0.79,29.519,0.125,44.212,0.337c32.878,0.476,65.951,1.698,98.782-0.663c32.112-2.309,64.066-6.479,96.254-7.751
			c32.245-1.274,64.711-0.82,96.982-0.834c32.477-0.015,64.687,1.652,97.079,3.722c65.882,4.209,131.906,1.613,197.85,3.332
			c33.033,0.861,66.05,2.3,99.094,2.718c33.152,0.419,66.199-0.738,99.278-2.868c16.562-1.066,33.12-2.196,49.7-2.962
			c13.143-0.606,26.581-1.596,39.71-0.426c8.027,0.715,17.472,2.306,25.246-0.544c2.581-0.946,4.124-2.877,4.522-5.577
			c0.859-5.832-2.765-10.422,2.152-15.34c3.728-3.728,9.306-5.649,13.739-8.385c3.814-2.354,6.393-5.548,8.489-9.458
			c4.531-8.452,7.325-20.22,4.782-29.672c-0.229-0.854-1.042-1.174-1.845-1.047c-5.465,0.861-10.746,2.509-16.171,3.557
			c-7.78,1.502-14.173-0.71-19.626-6.439c-6.661-6.999-8.166-17.746-14.578-25.114c-6.505-7.474-16.276-4.43-24.236-1.34
			c-11.38,4.418-22.759,8.077-34.462,11.629c-14.5,4.402-29.226,8.36-44.424,9.185c-15.445,0.838-29.04-3.034-42.247-10.77
			c-5.432-3.181-11.088-5.625-17.203-7.165c-7.187-1.809-14.881-1.144-22.181-0.643c-14.595,1.002-28.876,3.263-43.218,6.117
			c-15.337,3.051-30.619,6.42-46.179,8.15c-14.704,1.635-30.935,2.157-45.071-2.776c-12.065-4.209-22.103-12.141-34.839-14.705
			c-12.155-2.447-25.056-1.113-37.228,0.472c-26.601,3.463-52.06,11.346-78.301,16.517c-14.243,2.807-30.317,5.067-44.634,1.496
			c-6.819-1.701-12.822-6.142-19.216-8.935c-6.99-3.053-14.437-5.111-21.901-6.601c-28.274-5.645-56.928,1.241-84.416,7.704
			c-14.075,3.309-28.21,6.421-42.394,9.23c-14.22,2.816-29.076,4.731-43.354,1.271c-6.488-1.572-11.083-4.482-15.505-9.361
			c-3.765-4.153-7.059-8.77-11.439-12.321c-1.907-1.546-4.508-3.168-6.98-2.122c-3.903,1.652-7.344,4.542-10.706,7.071
			c-4.06,3.054-8.539,5.203-13.022,7.598c-7.205,3.849-14.365,7.13-22.47,8.472c-7.333,1.214-14.941,0.861-22.339,0.711
			c-6.956-0.141-14.188,0.695-21.089-0.26c-10.284-1.423-16.417-10.839-25.754-14.198c-7.612-2.739-15.839-1.321-23.073,1.909
			c-17.446,7.791-30.175,22.702-46.875,31.618C-14.491,138.918-12.976,141.508-11.27,140.598L-11.27,140.598z"/>
	</g>
</g>
</svg>
