<?xml version="1.0" encoding="utf-8"?>
<!-- Generator: Adobe Illustrator 16.0.3, SVG Export Plug-In . SVG Version: 6.00 Build 0)  -->
<!DOCTYPE svg PUBLIC "-//W3C//DTD SVG 1.1//EN" "http://www.w3.org/Graphics/SVG/1.1/DTD/svg11.dtd">
<svg version="1.1" id="Layer_1" xmlns="http://www.w3.org/2000/svg" xmlns:xlink="http://www.w3.org/1999/xlink" x="0px" y="0px"
	 width="940px" height="200px" viewBox="0 0 940 200" enable-background="new 0 0 940 200" xml:space="preserve">
<g>
	<path fill="#E2B524" d="M121.96,160.871c24.836-24.183,37.908-64.052,54.902-94.771c12.418-20.915,21.568,9.804,26.797,22.876
		c7.189,18.954,13.072,43.137,23.529,60.131c9.15-3.268,16.994-10.458,24.836-16.34c15.033-11.111,30.719-21.568,46.405-32.026
		c20.915-15.033,42.484-30.065,62.092-47.059c6.536,8.497,10.458,30.065,14.379,40.523c3.268,8.497,3.922,16.34,4.575,24.837
		c13.726-7.19,31.373-33.987,47.059-35.294c7.843-1.307,7.189,0,11.111,8.497c2.614,5.882,5.882,12.418,7.189,18.954
		c3.922,13.726,3.268,43.791,19.608,47.712c10.458,3.268,26.144-2.614,36.602-3.268c13.725-0.653,28.104,0,41.83,0.654
		c12.419,1.307,24.837,2.614,37.909,2.614"/>
	<g>
		<path d="M123.021,161.932c13.646-13.497,23.176-30.344,31.699-47.375c4.505-9.003,8.703-18.157,13.044-27.239
			c2.221-4.646,4.498-9.265,6.856-13.843c2.139-4.15,4.178-9.137,8.021-12.018c9.026-6.766,18.675,25.445,20.642,30.799
			c7.1,19.328,11.893,39.817,22.611,57.608c0.322,0.534,1.068,0.929,1.694,0.689c11.279-4.324,20.238-12.912,29.88-19.919
			c12.062-8.766,24.453-17.073,36.852-25.352c23.23-15.511,46.102-32.293,67.263-50.54c-0.785-0.101-1.57-0.202-2.356-0.304
			c5.938,8.157,8.047,19.117,10.701,28.669c1.249,4.493,2.589,8.926,4.188,13.307c2.641,7.233,3.268,15.013,3.86,22.627
			c0.088,1.131,1.207,1.872,2.257,1.295c17.447-9.585,27.582-32.717,48.62-35.422c4.976-0.64,5.803,4.354,7.498,8.086
			c3.021,6.651,5.69,13.16,7.472,20.25c2.231,8.877,2.76,18.102,4.995,26.995c1.789,7.121,4.823,14.675,11.391,18.61
			c8.744,5.24,21.215,1.728,30.402-0.097c29.656-5.89,60.338,1.505,90.174,1.652c1.935,0.01,1.934-2.99,0-3
			c-29.611-0.146-60.058-7.447-89.517-1.83c-10.45,1.993-25.161,6.626-33.458-2.591c-6.244-6.937-7.366-18.445-8.758-27.253
			c-1.721-10.892-4.062-20.852-8.635-30.98c-1.67-3.699-2.985-8.455-5.795-11.498c-2.228-2.413-6.297-1.218-9.049-0.9
			c-8.937,1.035-16.636,8.514-22.875,14.353c-7.642,7.153-14.695,15.935-23.979,21.035c0.752,0.432,1.504,0.864,2.257,1.295
			c-0.521-6.704-1.181-13.324-2.862-19.851c-1.464-5.685-3.71-11.21-5.293-16.88c-2.734-9.791-4.907-21.01-11.003-29.386
			c-0.595-0.817-1.573-0.979-2.356-0.304c-20.461,17.643-42.556,33.999-65.034,48.988c-11.872,7.917-23.713,15.881-35.33,24.17
			c-10.42,7.436-20.222,17.248-32.309,21.881c0.565,0.229,1.129,0.459,1.694,0.689c-11.553-19.177-16.413-41.562-24.362-62.301
			c-2.643-6.895-5.101-13.913-8.81-20.328c-2.146-3.711-6.111-9.154-11.135-8.111c-7.238,1.502-10.627,11.353-13.538,17.063
			c-4.999,9.807-9.56,19.833-14.311,29.761c-9.452,19.751-19.698,39.818-35.43,55.378
			C119.523,161.172,121.645,163.293,123.021,161.932L123.021,161.932z"/>
	</g>
</g>
<g>
	<g>
		<path d="M578.169,160.41c35.828-0.115,71.346-6.184,107.189-5.911c36.4,0.277,72.756-1.243,109.15-1.279
			c1.935-0.002,1.935-3.002,0-3c-35.735,0.035-71.45,1.91-107.189,1.307c-36.501-0.616-72.672,5.766-109.15,5.882
			C576.234,157.417,576.234,160.417,578.169,160.41L578.169,160.41z"/>
	</g>
</g>
<g>
	<path fill="#E5952C" d="M629.804,154.989c20.261-5.882,41.176-22.876,58.17-34.641c15.032-9.804,28.758-20.915,43.791-30.719
		c4.574-3.268,11.765-10.458,17.646-8.497c8.497,3.268,10.458,28.104,16.34,34.641c5.883,7.189,12.418,7.189,21.568,6.536
		c29.412-1.961,62.092-28.105,89.543-10.458c7.843,5.229,13.072,10.458,18.954,18.301c3.269,4.575,4.575,11.765,10.458,13.726"/>
	<g>
		<path d="M630.202,156.435c12.956-3.93,24.568-11.068,35.693-18.625c11.777-8,23.419-16.288,35.032-24.523
			c11.532-8.178,23.626-16.024,34.721-24.762c4.031-3.174,10.87-9.205,15.603-4.172c3.219,3.423,4.511,8.921,5.864,13.274
			c2.486,7.992,4.004,16.5,10.58,22.233c7.435,6.481,19.705,4.403,28.508,2.736c23.901-4.525,48.844-21.921,73.63-12.707
			c9.202,3.421,16.827,11.182,22.868,18.66c4.54,5.619,6.01,13.788,13.175,16.775c1.785,0.745,2.556-2.16,0.797-2.893
			c-5.663-2.361-7.137-9.847-10.593-14.394c-3.816-5.021-8.109-9.555-13.013-13.522c-9.034-7.311-19.215-10.712-30.817-10.151
			c-24.953,1.206-46.682,16.963-71.993,16.698c-12.743-0.133-16.191-10.663-19.237-20.877c-1.959-6.573-3.834-16.216-10.227-20.063
			c-3.217-1.936-7.321-0.256-10.281,1.301c-5.525,2.907-10.505,7.515-15.657,11.035c-12.688,8.668-24.791,18.153-37.638,26.594
			c-18.762,12.328-35.906,27.845-57.812,34.49C627.559,154.102,628.347,156.998,630.202,156.435L630.202,156.435z"/>
	</g>
</g>
<g>
	<g>
		<path d="M946.797,141.07c-32.45-1.125-64.416,6.094-96.807,6.527c-33.954,0.455-67.929-1.273-101.886-1.299
			c-1.935-0.001-1.935,2.999,0,3c33.339,0.025,66.661,1.282,100,1.308c33.041,0.025,65.602-7.683,98.692-6.536
			C948.732,144.137,948.726,141.137,946.797,141.07L946.797,141.07z"/>
	</g>
</g>
<g>
	<g>
		<path d="M127.189,160.678c-48.366,0.662-96.725,1.943-145.098,1.96c-1.935,0-1.935,3,0,3c48.373-0.018,96.732-1.298,145.098-1.96
			C129.122,163.652,129.125,160.652,127.189,160.678L127.189,160.678z"/>
	</g>
</g>
<g>
	<path fill="#E8BE95" d="M-19.87,166.753c5.229,11.111,1.307,24.836,5.229,36.601c5.229,14.379,12.418,15.033,28.104,16.34
		c58.824,2.615,118.955,0,178.432,0c86.928,0,173.856,0,260.784,4.575c90.85,5.229,181.045-4.575,271.895-4.575
		c26.798,0,54.249-1.96,81.046-4.575c28.759-2.614,58.17-1.307,86.274-4.575c16.34-1.96,33.334-3.268,47.713-10.458
		c11.111-5.882,11.765-9.804,11.765-21.568c0-7.843,3.268-31.373-4.575-35.294"/>
	<g>
		<path d="M-21.165,167.51c5.37,12.446,0.613,26.716,6.234,39.14c3.6,7.958,9.183,11.958,17.722,13.408
			c13.658,2.319,28.005,1.826,41.811,2.073c16.327,0.292,32.659,0.263,48.987,0.13c65.959-0.538,131.877-1.308,197.842-0.813
			c33.184,0.25,66.366,0.773,99.536,1.781c33.078,1.004,66.118,3.31,99.204,3.91c65.687,1.191,131.278-3.806,196.913-5.452
			c32.521-0.815,64.912-0.582,97.371-3.171c16.059-1.281,32.029-2.883,48.138-3.454c16.005-0.567,32.02-0.742,47.996-1.935
			c14.371-1.073,29.107-2.572,43.16-5.844c9.163-2.134,21.925-5.862,27.011-14.639c3.658-6.313,2.146-15.879,2.53-22.934
			c0.43-7.889,1.354-17.57-2.646-24.758c-0.717-1.288-1.835-2.289-3.09-3.024c-1.672-0.98-3.182,1.613-1.514,2.591
			c6.941,4.071,4.551,19.643,4.191,26.255c-0.443,8.127,1.392,18.334-5.356,24.219c-10.847,9.46-28.785,11.151-42.418,12.816
			c-15.547,1.897-31.06,3.055-46.713,3.566c-16.079,0.525-32.165,0.759-48.206,2.075c-16.087,1.32-32.129,2.89-48.252,3.766
			c-32.558,1.769-65.232,1.105-97.822,2.25c-65.624,2.304-131.256,6.7-196.938,3.902c-66.339-2.826-132.565-4.784-198.974-5.071
			c-58.646-0.253-117.252,0.555-175.892,0.995c-14.368,0.108-28.738,0.088-43.105-0.128c-13.654-0.206-27.484-0.15-41.062-1.73
			c-10.185-1.186-16.144-6.086-19.156-16.022c-3.52-11.611,0.012-24.004-4.911-35.414C-19.339,164.224-21.923,165.754-21.165,167.51
			L-21.165,167.51z"/>
	</g>
</g>
</svg>
