<?xml version="1.0" encoding="utf-8"?>
<!-- Generator: Adobe Illustrator 16.0.3, SVG Export Plug-In . SVG Version: 6.00 Build 0)  -->
<!DOCTYPE svg PUBLIC "-//W3C//DTD SVG 1.1//EN" "http://www.w3.org/Graphics/SVG/1.1/DTD/svg11.dtd">
<svg version="1.1" id="Layer_1" xmlns="http://www.w3.org/2000/svg" xmlns:xlink="http://www.w3.org/1999/xlink" x="0px" y="0px"
	 width="256px" height="256px" viewBox="0 0 256 256" enable-background="new 0 0 256 256" xml:space="preserve">
<g>
	<path fill="#BABABA" d="M2.617,117c8.356,0.836,16.494,3,24.851,3c10.864,0,22.006,0,32.869,0c12.256,0,24.234,2.156,36.49,3.271
		c9.471,0.835,19.22-1.011,28.691-1.29c13.092-0.278,25.906-3.013,39.276-1.62c7.521,0.836,15.32,1.697,22.841,3.369
		c5.293,1.114,10.585,2.799,16.435,2.242c13.928-1.393,30.92-5.843,43.176-13.364c1.393-0.835,2.507-1.668,3.621-2.783
		c-6.406-3.621-15.877-4.176-23.12-4.733c-13.37-1.114-27.576-0.278-41.226-0.278c-28.412,0-57.103-0.278-85.515-0.278
		c-25.348,0-51.035-0.557-76.382,0c-5.85,0-21.623,1.671-22.623,9.471V114"/>
	<g>
		<path d="M2.677,118.848c11.017,1.237,21.363,3.064,32.499,3.064c11.58,0,23.229-0.375,34.79,0.354
			c10.866,0.686,21.677,2.875,32.573,2.913c5.764,0.02,11.534-0.775,17.268-1.264c5.62-0.478,11.262-0.539,16.885-1.029
			c10.745-0.935,21.12-1.759,31.884-0.553c10.736,1.203,21.313,4.51,32.047,5.239c9.008,0.611,19.164-2.432,27.669-5.02
			c8.11-2.467,17.307-5.858,23.636-11.666c0.692-0.635,0.534-1.919-0.304-2.356c-7.893-4.112-17.008-4.414-25.705-5.08
			c-12.475-0.956-25.041-0.235-37.533-0.143c-25.244,0.185-50.497-0.198-75.742-0.26c-25.412-0.063-50.832-0.43-76.243-0.198
			c-8.291,0.076-16.649-0.178-24.741,1.897c-4.474,1.147-11.039,4.004-11.039,9.536c0,1.935,3,1.935,3,0
			c0-6.349,12.596-7.626,16.941-8.049c9.735-0.949,19.771-0.442,29.542-0.448c22.788-0.013,45.579,0.208,68.368,0.278
			c22.684,0.069,45.366,0.244,68.05,0.249c11.289,0.002,22.57-0.511,33.858-0.153c9.694,0.308,20.96,0.393,29.73,4.962
			c-0.102-0.786-0.203-1.571-0.304-2.356c-6.787,6.227-16.863,9.347-25.535,11.849c-9.552,2.756-19.972,5.037-29.851,3.12
			c-9.896-1.921-19.591-3.708-29.626-4.823c-10.59-1.176-21.269,0.438-31.819,1.286c-10.673,0.857-21.641,2.011-32.346,1.975
			c-10.849-0.037-21.75-2.344-32.583-3.027c-10.906-0.688-21.946-0.233-32.871-0.233c-11.08,0-21.542-1.834-32.499-3.064
			C0.756,115.632,0.777,118.635,2.677,118.848L2.677,118.848z"/>
	</g>
</g>
<g>
	<path fill="#BFBFBF" d="M107.134,27.098c-16.992,0.835-35.376-8.078-52.368-1.95c-2.507,1.114-6.686,3.064-6.686,6.686
		c-0.278,5.85,8.357,3.621,12.256,3.621c15.877,0,30.083-3.621,45.404-5.571"/>
	<g>
		<path d="M107.134,25.598c-13.153,0.409-25.856-3.925-38.982-4.115c-7.063-0.103-20.422,1.381-21.571,10.351
			c-0.993,7.758,11.641,5.14,15.654,5.104c14.653-0.131,29.042-3.647,43.507-5.554c1.889-0.249,1.914-3.252,0-3
			c-10.225,1.348-20.347,3.375-30.584,4.632c-4.92,0.604-9.865,0.895-14.82,0.939c-3.055,0.027-6.09,0.789-9.13,0.149
			c-4.797-1.01,0.971-5.962,2.461-6.785c1.999-1.103,4.261-1.608,6.466-2.104c5.386-1.21,11.107-0.775,16.537-0.169
			c10.202,1.138,20.123,3.874,30.462,3.552C109.063,28.538,109.069,25.538,107.134,25.598L107.134,25.598z"/>
	</g>
</g>
<g>
	<path fill="#BFBFBF" d="M127.189,25.705c-5.85-0.557-17.827-4.457-18.384,3.621c3.064,1.95,14.206,2.507,16.435-1.393"/>
	<g>
		<path d="M127.189,24.205c-6.457-0.708-18.696-4.686-19.884,5.121c-0.061,0.5,0.326,1.062,0.743,1.295
			c4.799,2.689,15.014,3.088,18.487-1.931c1.104-1.595-1.498-3.093-2.591-1.514c-2.397,3.464-11.193,2.641-14.382,0.854
			c0.248,0.432,0.495,0.864,0.743,1.295c0.789-6.507,12.813-2.567,16.884-2.121C129.111,27.415,129.091,24.413,127.189,24.205
			L127.189,24.205z"/>
	</g>
</g>
<g>
	<path fill="#BFBFBF" d="M126.075,26.541c4.457-2.229,12.256-2.229,17.271-2.786c6.406-0.835,12.256-1.393,18.663-1.393
		c6.685,0,13.37-0.279,19.776,1.393c3.064,0.835,11.699,3.064,12.535,6.964c0.836,5.571-20.612,3.064-24.791,1.671
		c-8.914-2.507-17.271-5.292-26.463-6.128c-5.014-0.278-10.027,0-15.042,0"/>
	<g>
		<path d="M126.832,27.836c5.13-2.25,11.035-2.035,16.514-2.581c7.476-0.745,14.784-1.37,22.308-1.407
			c6.178-0.031,12.17,0.308,18.133,2.024c2.382,0.685,4.682,1.559,6.837,2.789c3.203,1.828,1.866,3.122-0.74,3.665
			c-6.881,1.433-15.064,0.008-21.73-1.886c-6.386-1.814-12.722-3.711-19.261-4.907c-6.905-1.262-13.889-0.813-20.867-0.771
			c-1.934,0.012-1.935,3.012,0,3c9.959-0.061,19.124,0.121,28.848,2.609c5.863,1.5,11.557,3.64,17.561,4.514
			c3.853,0.561,19.915,3.367,21.258-2.866c1.958-9.094-19.651-10.911-24.593-11.12c-9.274-0.393-18.557,0.188-27.753,1.356
			c-6.093,0.773-12.293,0.475-18.027,2.99C123.55,26.021,125.079,28.605,126.832,27.836L126.832,27.836z"/>
	</g>
</g>
<g>
	<g>
		<path d="M112.783,34.521c1.485,0.741,0.313,2.427-0.582,3.215c-1.455,1.281,0.676,3.395,2.121,2.121
			c2.357-2.077,3.304-6.266-0.024-7.927C112.572,31.069,111.052,33.657,112.783,34.521L112.783,34.521z"/>
	</g>
</g>
<g>
	<path fill="#EFDB7B" d="M235.546,105.092c-5.571-6.964-8.913-16.435-13.092-24.234c-3.064-5.85-5.293-13.649-9.471-18.663
		c-3.621-4.735-9.471-5.292-14.764-6.963c-7.521-1.95-14.763-3.9-22.005-5.85c-13.928-3.622-27.299-3.9-41.226-6.128
		c-9.192-1.671-19.499-4.457-28.691-2.229c-5.014,1.393-10.028,3.343-15.32,4.457c-5.292,0.835-10.585,0.278-15.877,0.835
		c-4.178,0.279-7.521,1.671-11.42,3.343c-5.292,2.507-11.978,3.343-16.156,6.964c-3.899,3.621-6.406,8.635-9.192,12.813
		c-3.343,4.457-7.521,8.356-10.307,12.813c-2.228,3.622-1.95,6.964-3.064,10.864c-0.835,3.621-3.343,6.128-3.899,10.028"/>
	<g>
		<path d="M236.841,104.335c-6.631-8.657-11.265-19.638-15.578-29.615c-2.061-4.766-4.012-9.458-7.219-13.585
			c-2.812-3.62-7.144-5.057-11.395-6.222c-12.937-3.546-25.923-7.545-39.197-9.589c-13.275-2.044-26.574-3.502-39.831-5.72
			c-4.713-0.789-9.68-1.32-14.436-0.613c-6.834,1.016-13.107,4.326-19.973,5.222c-5.958,0.778-11.974,0.055-17.921,1.151
			c-5.624,1.037-11.086,4.109-16.507,5.915c-4.817,1.604-8.332,3.86-11.501,7.86c-3.686,4.653-6.361,9.877-10.283,14.391
			c-3.431,3.949-6.837,7.735-8.213,12.891c-0.794,2.977-0.942,5.938-2.164,8.827c-1.091,2.582-2.405,4.725-3.009,7.497
			c-0.411,1.886,2.48,2.688,2.893,0.798c1.011-4.637,3.704-8.513,4.604-13.254c1.267-6.669,4.75-10.884,9.106-15.898
			c3.287-3.783,5.689-8,8.482-12.136c3.821-5.658,9.007-7.453,15.208-9.509c5.13-1.701,9.719-4.344,15.191-4.926
			c5.348-0.568,11.008,0.313,16.276-0.889c5.733-1.309,11.206-3.594,16.954-4.799c6.386-1.339,13.337,0.092,19.616,1.286
			c11.511,2.188,23.121,3.142,34.708,4.801c12.283,1.758,24.619,5.316,36.5,8.859c4.77,1.422,9.342,2.213,12.769,6.18
			c3.48,4.03,5.272,9.564,7.354,14.377c4.115,9.517,8.652,19.963,14.975,28.216C235.41,107.362,238.018,105.871,236.841,104.335
			L236.841,104.335z"/>
	</g>
</g>
<g>
	<path fill="#BABABA" d="M206.298,116.513c5.293,4.457,11.421,11.699,13.649,18.384c1.393,5.015,0.557,10.864,0.557,15.878
		c1.672,0.278,3.621,0.278,5.293,0.278c-3.343,0.558-8.078-0.836-11.699,0.558c-5.571,1.949,0,4.178,3.621,5.014
		c3.621,0.557,8.078,0.557,11.142-1.114c4.735-2.507,1.394-3.343-2.507-3.899"/>
	<g>
		<path d="M205.237,117.573c4.646,4.033,8.634,8.651,11.647,14.029c3.319,5.923,2.213,12.69,2.119,19.172
			c-0.013,0.886,0.697,1.41,1.5,1.5c1.775,0.199,3.507,0.268,5.293,0.278c0-1,0-2,0-3c-3.814,0.368-12.579-1.822-15.104,2.49
			c-2.188,3.733,4.284,5.425,6.628,6.027c4.787,1.23,10.887,0.37,14.644-2.938c3.513-3.094-3.704-4.733-5.212-4.968
			c-1.892-0.295-2.704,2.596-0.797,2.893c2.432,0.379,3.584,0.849-0.018,1.964c-2.705,0.838-6.249,0.561-8.952-0.134
			c-1.021-0.275-2.005-0.649-2.953-1.122c1.368-1.001,2.86-1.433,4.477-1.296c2.447-0.072,4.836,0.32,7.288,0.084
			c1.891-0.183,1.969-2.988,0-3c-1.786-0.011-3.518-0.079-5.293-0.278c0.5,0.5,1,1,1.5,1.5c0.096-6.669,0.892-13.068-1.85-19.331
			c-2.705-6.181-7.766-11.625-12.796-15.991C205.905,114.19,203.773,116.303,205.237,117.573L205.237,117.573z"/>
	</g>
</g>
<g>
	<path fill="#BABABA" d="M45.853,112.334c-8.078,2.785-21.449,7.799-23.677,16.992c-0.835,2.785-2.228,17.549,1.95,16.991
		c-2.786,0.836-11.978,0.836-8.914,6.128c1.114,1.95,12.813,3.343,15.877,1.95c10.585-4.179-8.635-8.078-11.699-8.635"/>
	<g>
		<path d="M45.454,110.888c-9.396,3.263-22.016,7.684-24.832,18.448c-1.003,3.836-3.12,18.372,3.503,18.481
			c-0.133-0.982-0.266-1.964-0.399-2.946c-3.966,0.993-11.69,1.025-10.396,7.041c1.136,5.285,12.667,4.84,16.444,4.348
			c3.306-0.431,8.125-3.485,4.728-6.897c-3.368-3.383-10.242-4.217-14.713-5.048c-1.891-0.352-2.698,2.539-0.798,2.893
			c2.271,0.423,4.519,0.95,6.747,1.558c2.297,0.626,9.673,2.523,4.365,4.392c-3.589,1.263-8.896,0.065-12.393-0.964
			c-3.617-1.065,0.446-3.156,1.961-3.518c1.603-0.383,3.253-0.511,4.853-0.911c1.671-0.418,1.274-2.919-0.399-2.946
			c-3.418-0.057-0.421-15.872,0.6-17.866c3.767-7.354,14.305-10.663,21.526-13.17C48.067,113.15,47.286,110.252,45.454,110.888
			L45.454,110.888z"/>
	</g>
</g>
<g>
	<path fill="#C9E0F4" d="M19.111,234.34c4.457,2.229,10.585,1.95,15.599,2.507c6.964,1.114,13.927,2.229,20.891,3.064
		c25.627,3.343,51.532,8.078,77.438,6.406c16.156-1.114,32.591-2.229,48.746-3.063c10.307-0.558,20.056-3.621,30.084-4.735
		c6.406-0.558,27.298,2.785,27.855-7.8c-3.9-1.393-10.028,0-14.206,0.557c-6.407,1.114-12.535,1.95-19.221,2.508
		c-18.663,1.113-37.325,0.835-55.988,0.835c-19.221,0-38.719,1.114-57.939-0.278c-12.813-0.836-25.905-3.343-38.44-5.571
		c-9.192-1.671-19.22-1.393-28.69-1.393c-1.671,0-6.686-0.836-8.078,0.278c-2.507,1.672-1.114,6.129,2.507,5.293"/>
	<g>
		<path d="M18.354,235.635c3.753,1.618,7.568,2.061,11.618,2.346c5.924,0.418,11.761,1.511,17.634,2.368
			c11.001,1.606,22.041,3.02,33.061,4.495c11.584,1.551,23.205,2.798,34.89,3.218c12.347,0.444,24.661-0.752,36.968-1.563
			c11.521-0.76,23.204-0.898,34.67-2.249c9.355-1.103,18.625-4.423,28.089-4.285c8.029,0.117,24.693,2.187,25.941-9.245
			c0.071-0.653-0.511-1.284-1.102-1.446c-8.275-2.269-18.451,1.273-26.713,2.292c-11.298,1.393-22.772,1.437-34.142,1.546
			c-23.797,0.229-47.68,0.701-71.473,0.377c-12.189-0.165-24.246-1.246-36.282-3.165c-10.631-1.695-21.033-4.004-31.824-4.377
			c-5.069-0.175-10.155,0.119-15.22-0.104c-2.733-0.119-5.513-0.731-8.065,0.518c-4.722,2.31-0.899,8.436,3.264,8.088
			c1.914-0.16,1.929-3.161,0-3c0.073-0.957,0.147-1.914,0.22-2.871c0.811-0.003,1.62,0.028,2.428,0.094
			c1.586,0.095,3.112,0.206,4.705,0.203c4.829-0.007,9.654-0.031,14.481,0.135c9.855,0.341,19.512,2.613,29.213,4.207
			c18.729,3.077,37.49,3.5,56.431,3.206c19.305-0.299,38.61-0.099,57.914-0.381c9.464-0.138,18.941-0.398,28.35-1.476
			c8.021-0.919,18-4.568,25.916-2.399c-0.367-0.482-0.734-0.964-1.102-1.446c-1.077,9.872-21.845,5.618-28.521,6.569
			c-10,1.425-19.733,4.037-29.857,4.567c-11.066,0.579-22.126,1.292-33.183,2.032c-10.382,0.694-20.693,1.455-31.107,1.174
			c-11.029-0.298-22.022-1.553-32.956-2.963c-10.773-1.39-21.534-2.909-32.297-4.374c-5.077-0.691-10.135-1.516-15.193-2.324
			c-5.144-0.822-10.328-0.238-15.241-2.355C18.112,232.287,16.582,234.871,18.354,235.635L18.354,235.635z"/>
	</g>
</g>
<g>
	<g>
		<path d="M35.771,228.158c5.48-5.528,12.213-9.971,16.987-16.173c5.628-7.312,8.29-16.986,12.003-25.358
			c4.027-9.079,6.42-18.567,8.976-28.137c1.294-4.848,2.519-9.713,3.646-14.603c1.177-5.102,1.575-10.55,3.063-15.556
			c0.553-1.859-2.343-2.647-2.893-0.798c-1.309,4.403-1.684,9.216-2.655,13.728c-1.056,4.902-2.305,9.762-3.574,14.612
			c-2.596,9.924-5.055,19.809-9.154,29.239c-3.431,7.891-6.199,17.207-11.142,24.239c-4.595,6.537-11.8,11.057-17.379,16.685
			C32.287,227.412,34.408,229.533,35.771,228.158L35.771,228.158z"/>
	</g>
</g>
<g>
	<g>
		<path d="M150.129,131.754c3.227,6.763,4.984,14.021,7.142,21.162c2.096,6.933,4.603,13.775,7.132,20.56
			c3.946,10.584,8.132,22.051,14.602,31.388c6.706,9.677,17.067,11.429,27.946,13.508c7.009,1.339,13.005,3.803,19.241,7.211
			c4.852,2.652,9.701,4.523,15.204,5.244c1.914,0.251,1.89-2.753,0-3c-6.597-0.863-12.087-3.977-17.834-7.099
			c-4.982-2.706-10.28-4.142-15.813-5.249c-6.081-1.218-12.406-1.993-18.043-4.743c-4.979-2.43-8.325-7.313-10.993-11.972
			c-5.87-10.252-9.96-21.844-13.909-32.928c-4.183-11.74-6.711-24.337-12.084-35.596C151.886,128.495,149.3,130.018,150.129,131.754
			L150.129,131.754z"/>
	</g>
</g>
<path fill="none" stroke="#000000" stroke-miterlimit="10" d="M61.683,50.512"/>
</svg>
